<?xml version="1.0" encoding="UTF-8"?>
<svg version="1.1" xmlns="http://www.w3.org/2000/svg" width="884" height="186">
<path d="M0 0 C0.98150635 2.24954224 0.98150635 2.24954224 2.02441406 5.27783203 C2.42002533 6.41455353 2.8156366 7.55127502 3.22323608 8.72244263 C3.8629686 10.59620071 3.8629686 10.59620071 4.515625 12.5078125 C4.96729414 13.81321806 5.41966985 15.11837935 5.87271118 16.42330933 C6.837324 19.20578667 7.79756156 21.98971921 8.7543335 24.77490234 C10.99672736 31.30176817 13.26071858 37.82115277 15.52228928 44.34139252 C16.27392436 46.50921667 17.02467272 48.6773464 17.77529907 50.84552002 C21.72906796 62.25918041 25.76806241 73.64051006 29.875 85 C30.97439008 88.0441151 32.07335434 91.08838355 33.171875 94.1328125 C33.54667496 95.17115234 33.54667496 95.17115234 33.92904663 96.23046875 C36.35173198 102.95384111 38.69304609 109.70423755 41.01367188 116.46337891 C42.97193679 122.13497735 45.00686333 127.775193 47.078125 133.40625 C47.34934174 134.14513458 47.62055847 134.88401917 47.8999939 135.64529419 C49.24771551 139.31564365 50.60131735 142.98362355 51.96533203 146.64794922 C52.46409469 148.00219488 52.96263946 149.35652081 53.4609375 150.7109375 C54.12295166 152.49443604 54.12295166 152.49443604 54.79833984 154.31396484 C56.16260307 158.49877715 57.12377774 162.69106897 58 167 C52.62485095 167.04935509 47.24983315 167.08569802 41.87451172 167.10986328 C40.04506127 167.11993484 38.21562697 167.13359276 36.38623047 167.15087891 C33.76005066 167.17507677 31.13408325 167.18647132 28.5078125 167.1953125 C27.68693146 167.20563507 26.86605042 167.21595764 26.02029419 167.22659302 C24.01210858 167.22699184 22.00444618 167.1224954 20 167 C17.40975374 164.40975374 16.81133673 162.03179434 15.6171875 158.56640625 C15.39805695 157.93266586 15.17892639 157.29892548 14.95315552 156.64598083 C14.49148644 155.30622134 14.03272452 153.96545703 13.57666016 152.6237793 C12.87798177 150.5712596 12.16823223 148.52281897 11.45703125 146.47460938 C11.00974908 145.17210406 10.56311276 143.86937674 10.1171875 142.56640625 C9.71097168 141.37990479 9.30475586 140.19340332 8.88623047 138.97094727 C8 136 8 136 8 133 C-14.44 133 -36.88 133 -60 133 C-60.495 135.97 -60.495 135.97 -61 139 C-61.71457673 141.25248115 -62.48003499 143.48921047 -63.28515625 145.7109375 C-63.68871338 146.83290527 -64.09227051 147.95487305 -64.50805664 149.11083984 C-65.02102295 150.5180127 -65.53398926 151.92518555 -66.0625 153.375 C-67.691875 157.87125 -69.32125 162.3675 -71 167 C-83.54 167 -96.08 167 -109 167 C-106.74989079 156.87450853 -106.74989079 156.87450853 -105.08325195 152.13696289 C-104.71078842 151.07030396 -104.33832489 150.00364502 -103.95457458 148.90466309 C-103.35250938 147.2058197 -103.35250938 147.2058197 -102.73828125 145.47265625 C-102.3159169 144.26814819 -101.89355255 143.06364014 -101.45838928 141.82263184 C-100.31908714 138.57435886 -99.17330862 135.32840688 -98.02605438 132.08293533 C-97.06535403 129.36270408 -96.10840883 126.64115822 -95.151474 123.91960049 C-87.52578655 102.23276319 -79.82351084 80.57337036 -72.05444336 58.9375 C-69.556123 51.97760407 -67.06154599 45.01636477 -64.56619263 38.05540466 C-62.4048384 32.02629695 -60.24297156 25.99737467 -58.07958984 19.96899414 C-57.68229675 18.8615686 -57.28500366 17.75414307 -56.87567139 16.61315918 C-56.12646871 14.52484674 -55.37701003 12.43662612 -54.6272583 10.34851074 C-54.12848175 8.95795471 -54.12848175 8.95795471 -53.61962891 7.53930664 C-53.32955963 6.73110977 -53.03949036 5.9229129 -52.7406311 5.09022522 C-52.141729 3.39999066 -51.56706054 1.70118163 -51 0 C-44.05842502 -0.16799036 -37.11669843 -0.32792417 -30.17480469 -0.48217773 C-27.8118059 -0.53564586 -25.44884855 -0.59097883 -23.0859375 -0.64819336 C-19.69540344 -0.72997008 -16.30477834 -0.80510471 -12.9140625 -0.87890625 C-11.85256989 -0.90594131 -10.79107727 -0.93297638 -9.69741821 -0.96083069 C-8.71655243 -0.98092697 -7.73568665 -1.00102325 -6.72509766 -1.02172852 C-5.85905914 -1.04171402 -4.99302063 -1.06169952 -4.10073853 -1.08229065 C-2 -1 -2 -1 0 0 Z M-27 36 C-38.52957705 67.82074758 -38.52957705 67.82074758 -49 100 C-34.15 100 -19.3 100 -4 100 C-4.73250036 95.60499786 -5.51604286 92.12359982 -6.94946289 87.99462891 C-7.54997215 86.25350327 -7.54997215 86.25350327 -8.16261292 84.47720337 C-8.59492722 83.23949188 -9.02724152 82.0017804 -9.47265625 80.7265625 C-9.92005022 79.43490839 -10.3670195 78.14310711 -10.81358337 76.85116577 C-11.98479465 73.46643688 -13.16173243 70.08372709 -14.33990479 66.70141602 C-15.54324296 63.24355938 -16.741112 59.7838096 -17.93945312 56.32421875 C-20.28764307 49.54762255 -22.64189056 42.77315167 -25 36 C-25.66 36 -26.32 36 -27 36 Z " fill="#FBFBFB" transform="translate(485,11)"/>
<path d="M0 0 C0.86199068 9.29704988 1.1350272 18.49829861 1.09765625 27.83203125 C1.09578488 29.20350594 1.09436439 30.57498131 1.09336853 31.94645691 C1.08959985 35.50881892 1.07981981 39.07113838 1.06866455 42.63348389 C1.058327 46.28755112 1.05384481 49.9416254 1.04882812 53.59570312 C1.03819082 60.73048587 1.02118479 67.86524012 1 75 C1.64428955 74.09523926 2.2885791 73.19047852 2.95239258 72.25830078 C7.81911457 65.43025367 12.70342999 58.61815354 17.6875 51.875 C18.27144531 51.08351562 18.85539062 50.29203125 19.45703125 49.4765625 C24.39176972 42.79891641 29.37283494 36.15645191 34.36474609 29.52148438 C39.49864945 22.69061165 44.57041209 15.81525084 49.609375 8.9140625 C50.15722656 8.16640625 50.70507812 7.41875 51.26953125 6.6484375 C51.99039917 5.66109619 51.99039917 5.66109619 52.72583008 4.65380859 C55.48010524 1.0788977 55.48010524 1.0788977 57.83499146 0.7215271 C58.57667572 0.70820343 59.31835999 0.69487976 60.08251953 0.68115234 C60.92324005 0.66128265 61.76396057 0.64141296 62.63015747 0.62094116 C63.53853363 0.60938995 64.44690979 0.59783875 65.3828125 0.5859375 C66.31221649 0.56657135 67.24162048 0.5472052 68.19918823 0.5272522 C71.1743648 0.46736315 74.14957988 0.4210339 77.125 0.375 C79.13934 0.33682879 81.15366354 0.29777757 83.16796875 0.2578125 C88.11184575 0.161654 93.05579917 0.0776576 98 0 C96.74208088 3.47342635 95.325205 6.15532003 93.0234375 9.0390625 C92.43908936 9.77882324 91.85474121 10.51858398 91.25268555 11.28076172 C90.63304932 12.05436035 90.01341309 12.82795898 89.375 13.625 C88.09637469 15.24378023 86.81902388 16.86356798 85.54296875 18.484375 C84.92856934 19.26361328 84.31416992 20.04285156 83.68115234 20.84570312 C80.9714879 24.31797717 78.39927229 27.8830142 75.83203125 31.4609375 C73.87963216 34.1668211 71.88288891 36.83505055 69.875 39.5 C65.2837301 45.59790424 60.76793222 51.74996633 56.25268555 57.90429688 C51.86877991 63.86339793 47.37860659 69.72626637 42.79296875 75.53125 C40.85109648 77.94401769 40.85109648 77.94401769 40 81 C41.10412761 83.05091421 41.10412761 83.05091421 42.83984375 85.1484375 C43.48300537 85.97867432 44.12616699 86.80891113 44.78881836 87.66430664 C45.4978833 88.55883545 46.20694824 89.45336426 46.9375 90.375 C48.41693711 92.27713343 49.8960958 94.17948345 51.375 96.08203125 C52.14070313 97.05994629 52.90640625 98.03786133 53.6953125 99.04541016 C57.31614458 103.6872862 60.87589671 108.37512703 64.4375 113.0625 C65.10910156 113.94397705 65.78070313 114.8254541 66.47265625 115.73364258 C71.34748326 122.13185303 76.18881435 128.55376298 81 135 C85.70740322 141.30455788 90.43985775 147.58608285 95.25 153.8125 C105 166.44821701 105 166.44821701 105 168 C98.63326484 168.30619207 92.26844531 168.51515869 85.89599609 168.65917969 C83.73251432 168.71924949 81.56951417 168.80094013 79.40771484 168.90527344 C60.47556418 169.79558204 60.47556418 169.79558204 55.49853516 165.54785156 C52.83482033 162.66982292 50.92172526 159.41107565 49 156 C47.96383766 154.6121686 46.90716852 153.23912505 45.8203125 151.890625 C44.91854545 150.67955543 44.02008483 149.46601664 43.125 148.25 C42.10943814 146.88406764 41.09381119 145.51818367 40.078125 144.15234375 C39.57087891 143.46769043 39.06363281 142.78303711 38.54101562 142.07763672 C35.99686408 138.64754648 33.43664511 135.22953617 30.875 131.8125 C30.37427979 131.14436279 29.87355957 130.47622559 29.35766602 129.7878418 C25.50003154 124.64832061 21.59509239 119.54761966 17.66796875 114.4609375 C14.38960361 110.21387814 11.13295842 105.9502204 7.875 101.6875 C7.29371338 100.92703369 6.71242676 100.16656738 6.11352539 99.38305664 C4.74219384 97.58882387 3.37101083 95.79447784 2 94 C0.71160589 95.0634768 0.71160589 95.0634768 0.88647461 97.53407288 C0.89171143 98.66244064 0.89694824 99.79080841 0.90234375 100.95336914 C0.90729858 102.86654686 0.90729858 102.86654686 0.91235352 104.81837463 C0.91853195 105.84825595 0.91853195 105.84825595 0.92483521 106.89894295 C0.93757464 109.04774596 0.94410948 111.19648733 0.94897461 113.34532166 C0.96236652 118.68939365 0.98642307 124.03340811 1.01037598 129.37744141 C1.0301891 133.88098772 1.04580424 138.38451132 1.05593872 142.88809013 C1.06237759 144.99510114 1.07489258 147.10201883 1.08764648 149.20899963 C1.10384169 155.57052884 1.01740094 161.71484546 0 168 C-4.96622349 168.02465098 -9.93241166 168.04283649 -14.89868164 168.05493164 C-16.58944316 168.0599719 -18.28020029 168.06680405 -19.97094727 168.07543945 C-22.39600707 168.08751857 -24.82100944 168.09323123 -27.24609375 168.09765625 C-28.38672523 168.10539818 -28.38672523 168.10539818 -29.55039978 168.11329651 C-31.3673257 168.11349238 -33.18413127 168.06197277 -35 168 C-36 167 -36 167 -36.12304783 164.28446865 C-36.12166514 162.44963972 -36.12166514 162.44963972 -36.12025452 160.57774353 C-36.12153615 159.55965736 -36.12153615 159.55965736 -36.12284368 158.52100378 C-36.12450041 156.23004074 -36.118974 153.93914974 -36.11352539 151.64819336 C-36.11324353 150.01259869 -36.11340122 148.3770039 -36.1139679 146.7414093 C-36.11425593 142.28705414 -36.10835824 137.83272566 -36.10139394 133.37837672 C-36.09516139 128.72853526 -36.09455668 124.07869326 -36.09336853 119.42884827 C-36.09025492 110.61738298 -36.08204113 101.80593003 -36.07201904 92.99447018 C-36.06085882 82.96561892 -36.05534768 72.93676709 -36.05032361 62.90791118 C-36.03985854 42.27193389 -36.02225853 21.63596772 -36 1 C-31.51597575 0.85677938 -27.03192619 0.71438669 -22.54785156 0.57275391 C-21.02310479 0.52447782 -19.49836511 0.47597735 -17.97363281 0.42724609 C-15.77931524 0.35715381 -13.58497326 0.2878742 -11.390625 0.21875 C-10.7113092 0.19687622 -10.03199341 0.17500244 -9.33209229 0.15246582 C-6.21840673 0.05511724 -3.11583496 0 0 0 Z " fill="#FBFBFA" transform="translate(135,10)"/>
<path d="M0 0 C0.73541016 0.00202423 1.47082031 0.00404846 2.22851562 0.00613403 C2.97939453 0.00517731 3.73027344 0.00422058 4.50390625 0.00323486 C6.09440189 0.00255315 7.6849003 0.00440682 9.27539062 0.00857544 C11.71816217 0.01392386 14.16074984 0.00863019 16.60351562 0.00222778 C18.1451827 0.00288857 19.68684966 0.00416973 21.22851562 0.00613403 C21.96392578 0.0041098 22.69933594 0.00208557 23.45703125 0 C28.61356402 0.02399493 28.61356402 0.02399493 29.72851562 1.13894653 C29.85263145 3.37752009 29.90654586 5.62000137 29.93383789 7.86184692 C29.94373749 8.56425003 29.95363708 9.26665314 29.96383667 9.99034119 C29.99553685 12.32239358 30.02024251 14.65446637 30.04492188 16.98660278 C30.06548407 18.59943688 30.08648034 20.2122655 30.1078949 21.8250885 C30.16319154 26.07803928 30.21256718 30.33103931 30.26074219 34.58407593 C30.31090193 38.92077028 30.36661678 43.2573928 30.421875 47.59402466 C30.52954937 56.10893795 30.63097357 64.62391118 30.72851562 73.13894653 C31.13517456 72.52469818 31.5418335 71.91044983 31.96081543 71.27758789 C32.49710571 70.46983917 33.033396 69.66209045 33.5859375 68.8298645 C34.11634644 68.02999115 34.64675537 67.2301178 35.1932373 66.40600586 C37.09424449 63.59889524 39.13256298 60.92816803 41.22851562 58.26394653 C45.44743116 52.85237288 49.54372073 47.35824305 53.60351562 41.82644653 C58.43237717 35.24811113 63.28750942 28.69194652 68.20654297 22.18069458 C68.64047363 21.60488647 69.0744043 21.02907837 69.52148438 20.43582153 C70.01076416 19.81844116 70.50004395 19.20106079 71.00415039 18.56497192 C72.45231855 16.52753075 73.60783864 14.55645568 74.79467773 12.36721802 C80.6287195 2.27203938 80.6287195 2.27203938 85.98416138 0.31442261 C92.26061529 -0.89549808 98.56367893 -0.56989952 104.91601562 -0.29855347 C106.84106133 -0.2714858 108.76621577 -0.25124544 110.69140625 -0.23800659 C115.37540346 -0.19107832 120.04825703 -0.05175307 124.72851562 0.13894653 C124.72851562 4.87392163 123.89656136 5.69164953 121.04101562 9.32644653 C120.64309814 9.83981567 120.24518066 10.35318481 119.83520508 10.8821106 C118.95206685 12.02118962 118.06505231 13.15727065 117.17480469 14.290802 C114.55865216 17.63385984 111.99193514 21.01486018 109.41601562 24.38894653 C108.86204102 25.11251343 108.30806641 25.83608032 107.73730469 26.58157349 C100.79724772 35.64800129 93.92373097 44.76399275 87.18164062 53.97879028 C80.90498331 62.55484209 74.61251508 71.03476728 67.72851562 79.13894653 C69.17667674 83.46751603 71.49819938 86.65186387 74.35351562 90.13894653 C75.35379036 91.38638169 76.35238422 92.63516588 77.34960938 93.88504028 C77.89214355 94.56421509 78.43467773 95.24338989 78.99365234 95.94314575 C82.18896624 99.98742568 85.29892222 104.0967742 88.41601562 108.20144653 C89.08914795 109.0869519 89.76228027 109.97245728 90.45581055 110.88479614 C91.84322137 112.71018164 93.23034391 114.53578629 94.6171875 116.36160278 C96.74004257 119.15410964 98.8664459 121.94387577 100.99414062 124.73269653 C114.05424502 141.85095692 114.05424502 141.85095692 119.69335938 149.42410278 C121.19226265 151.42359948 122.70421173 153.40821335 124.23242188 155.38504028 C124.64951416 155.92894409 125.06660645 156.4728479 125.49633789 157.03323364 C126.65290849 158.54041906 127.81550522 160.04297477 128.97851562 161.54519653 C130.59129164 163.93556099 131.14516195 165.39426749 131.72851562 168.13894653 C125.59060393 168.33732518 119.45457327 168.48216325 113.31420898 168.57839966 C111.22761518 168.61852957 109.14124493 168.67304925 107.05541992 168.74246216 C104.04875522 168.83998336 101.04507176 168.88497556 98.03710938 168.92019653 C97.11079208 168.96148682 96.18447479 169.0027771 95.23008728 169.0453186 C91.32637915 169.0479979 88.76407874 168.97453905 85.65853882 166.46868896 C83.85854463 164.43877945 82.2751219 162.36619258 80.72851562 160.13894653 C80.06948242 159.30669556 79.41044922 158.47444458 78.73144531 157.61697388 C78.20969727 156.91008423 77.68794922 156.20319458 77.15039062 155.47488403 C76.55266846 154.67018677 75.95494629 153.8654895 75.33911133 153.03640747 C74.72511475 152.20399536 74.11111816 151.37158325 73.47851562 150.51394653 C69.06857016 144.58181124 64.63729433 138.67817195 60.04101562 132.88894653 C54.78919753 126.26426263 49.71760999 119.51203967 44.66650391 112.7336731 C40.03113408 106.52748634 35.3776935 100.33479264 30.72851562 94.13894653 C30.71820816 95.05127548 30.7079007 95.96360443 30.69728088 96.90357971 C30.59948302 105.48284657 30.49699435 114.0620416 30.38917637 122.64118862 C30.33390731 127.05228053 30.28048109 131.46337903 30.23120117 135.87454224 C30.18361618 140.12801641 30.13127577 144.38140743 30.07557487 148.63478279 C30.05512465 150.26113896 30.03641607 151.88751795 30.0194416 153.51391411 C29.99545635 155.78411016 29.96539428 158.05414766 29.93383789 160.32424927 C29.91829361 161.61886581 29.90274933 162.91348236 29.88673401 164.24732971 C29.72851562 167.13894653 29.72851562 167.13894653 28.72851562 168.13894653 C26.13492241 168.22746182 23.56811871 168.25420598 20.97460938 168.23660278 C20.19916275 168.23518784 19.42371613 168.23377289 18.62477112 168.23231506 C16.13848068 168.22669999 13.65227902 168.214145 11.16601562 168.20144653 C9.4843763 168.19643347 7.80273556 168.19187023 6.12109375 168.18777466 C1.99019996 168.17672566 -2.14062713 168.15945098 -6.27148438 168.13894653 C-6.29481122 146.38212372 -6.31246249 124.62530296 -6.32329655 102.86847019 C-6.32845996 92.7671371 -6.33550352 82.66581176 -6.34692383 72.56448364 C-6.35686928 63.76350189 -6.36333747 54.96252576 -6.36557287 46.16153854 C-6.36688021 41.49848386 -6.36996755 36.83544525 -6.37721443 32.17239571 C-6.38397246 27.78862288 -6.38610178 23.40487282 -6.38459206 19.02109528 C-6.38486848 17.4073442 -6.38687489 15.7935924 -6.39068985 14.17984581 C-6.39562372 11.98625763 -6.39448382 9.79275683 -6.39173889 7.59916687 C-6.39266068 6.36857324 -6.39358248 5.1379796 -6.3945322 3.87009525 C-6.180939 -0.8707832 -4.24760173 0.01976539 0 0 Z " fill="#FAFAF9" transform="translate(743.271484375,9.861053466796875)"/>
<path d="M0 0 C12.54 0 25.08 0 38 0 C38 44.22 38 88.44 38 134 C62.42 134 86.84 134 112 134 C110.36021682 145.47848228 105.16236892 156.17784081 101 167 C67.67 167 34.34 167 0 167 C0 111.89 0 56.78 0 0 Z " fill="#FAFBFA" transform="translate(253,11)"/>
<path d="M0 0 C0 3 0 3 -1.28515625 4.54296875 C-1.87167969 5.08566406 -2.45820312 5.62835938 -3.0625 6.1875 C-5.52068563 8.54326123 -7.85139976 10.91098212 -10.0625 13.5 C-13.59834015 17.6051024 -17.29330677 21.5499991 -21 25.5 C-25.14266063 29.91747558 -29.23596531 34.35467299 -33.19140625 38.94140625 C-38.8568268 45.38995188 -44.77379173 51.62561853 -50.640625 57.890625 C-51.25220459 58.54409912 -51.86378418 59.19757324 -52.49389648 59.87084961 C-53.66658609 61.1228835 -54.84048716 62.37378433 -56.01586914 63.62329102 C-58.87122918 66.67015631 -61.67060088 69.75122529 -64.40625 72.90625 C-68.88252049 78.05424094 -73.59853218 82.96944237 -78.30273438 87.90820312 C-78.98013672 88.62298828 -79.65753906 89.33777344 -80.35546875 90.07421875 C-80.96028076 90.70932373 -81.56509277 91.34442871 -82.18823242 91.9987793 C-82.78611572 92.65918213 -83.38399902 93.31958496 -84 94 C-84.68643585 94.72615005 -85.3728717 95.45230011 -86.08010864 96.20045471 C-88.45203551 99.65914869 -88.50955547 101.62712581 -88.5300293 105.79394531 C-88.53876068 106.45631195 -88.54749207 107.11867859 -88.55648804 107.80111694 C-88.58076678 109.9770658 -88.57746053 112.15205844 -88.57421875 114.328125 C-88.58666701 115.84317641 -88.6010021 117.3582134 -88.61714172 118.87322998 C-88.65511473 122.85126746 -88.67034803 126.82905603 -88.67993164 130.80725098 C-88.6997035 137.18877702 -88.75639423 143.57011391 -88.80869484 149.9514389 C-88.82408277 152.18340201 -88.83123848 154.41527095 -88.83683777 156.64727783 C-88.84385 158.00606331 -88.8509506 159.36484834 -88.8581543 160.72363281 C-88.86163376 161.91434387 -88.86511322 163.10505493 -88.86869812 164.33184814 C-89 167 -89 167 -90 168 C-92.29151417 168.08790975 -94.58572524 168.10694038 -96.87890625 168.09765625 C-97.90889992 168.09553383 -97.90889992 168.09553383 -98.95970154 168.09336853 C-101.16067801 168.08775479 -103.36155409 168.07520007 -105.5625 168.0625 C-107.05143083 168.05748676 -108.54036324 168.05292355 -110.02929688 168.04882812 C-113.68623075 168.03778093 -117.34310558 168.02050713 -121 168 C-122.52936858 164.94126284 -122.19132822 161.73123862 -122.22460938 158.37255859 C-122.23599945 157.5853241 -122.24738953 156.7980896 -122.25912476 155.98699951 C-122.36985319 147.74329266 -122.41722339 139.49868846 -122.45996094 131.25439453 C-122.48221719 127.3450926 -122.5239553 123.43674817 -122.58300781 119.52783203 C-122.65421377 114.80511307 -122.69081054 110.08329366 -122.70307922 105.36006546 C-122.71346162 103.56352421 -122.7358428 101.76700915 -122.77067566 99.9707756 C-123.06157608 84.14827325 -123.06157608 84.14827325 -118.67382812 79.05322266 C-117.4817357 77.99758054 -116.25721759 76.97717376 -115 76 C-113.82170549 74.84507824 -112.65347936 73.67970657 -111.5 72.5 C-110.91734375 71.92636719 -110.3346875 71.35273437 -109.734375 70.76171875 C-107.37480672 68.36495007 -105.19702461 65.83037002 -103 63.28515625 C-100.62333295 60.56962847 -98.19192492 57.90666062 -95.75 55.25 C-95.28400391 54.74283447 -94.81800781 54.23566895 -94.33789062 53.71313477 C-92.40736384 51.61371981 -90.47512379 49.51588508 -88.54296875 47.41796875 C-87.11119444 45.86269908 -85.68058048 44.30636774 -84.25 42.75 C-83.40953125 41.83734375 -82.5690625 40.9246875 -81.703125 39.984375 C-79.65623488 37.74415043 -77.66019676 35.46418706 -75.671875 33.171875 C-71.24547905 28.09630637 -66.60064171 23.23515766 -61.9609375 18.35546875 C-58.05581815 14.23172302 -54.24651393 10.05028163 -50.54296875 5.74414062 C-50.03378906 5.16857422 -49.52460937 4.59300781 -49 4 C-48.56729294 3.47794479 -48.13458588 2.95588959 -47.68876648 2.41801453 C-45.50177146 0.58165008 -44.2690794 0.60642575 -41.43676758 0.56762695 C-40.51603958 0.54783279 -39.59531158 0.52803864 -38.64668274 0.50764465 C-37.65597275 0.50125473 -36.66526276 0.49486481 -35.64453125 0.48828125 C-34.62775803 0.47033005 -33.6109848 0.45237885 -32.56340027 0.43388367 C-29.31314248 0.3796646 -26.0630325 0.34584741 -22.8125 0.3125 C-20.61000542 0.27933721 -18.40753037 0.24484853 -16.20507812 0.20898438 C-10.80351796 0.12393168 -5.40193894 0.05563102 0 0 Z " fill="#FD5703" transform="translate(712,10)"/>
<path d="M0 0 C0.17823436 6.40419664 0.30038228 12.80774867 0.38452148 19.21386719 C0.4196135 21.3905426 0.46730105 23.5670543 0.52807617 25.74316406 C0.61349125 28.88127094 0.65280114 32.01718839 0.68359375 35.15625 C0.71972275 36.12115356 0.75585175 37.08605713 0.79307556 38.0802002 C0.79610621 43.35571979 0.21263749 46.36718892 -3.29663086 50.4140625 C-4.51189951 51.62887797 -5.74449744 52.82681295 -7 54 C-7.71027344 54.77279297 -8.42054688 55.54558594 -9.15234375 56.34179688 C-9.74144531 56.96119141 -10.33054687 57.58058594 -10.9375 58.21875 C-11.60523438 58.92386719 -12.27296875 59.62898438 -12.9609375 60.35546875 C-15 62.5 -15 62.5 -17.0390625 64.64453125 C-20.9082775 68.73036254 -24.67814233 72.87810251 -28.36523438 77.12890625 C-30.77380263 79.88566657 -33.25733241 82.56943217 -35.75 85.25 C-36.78265908 86.3657864 -37.81520839 87.48167441 -38.84765625 88.59765625 C-40.43158742 90.3076323 -42.01595437 92.01719997 -43.60107422 93.72607422 C-45.13200747 95.37793277 -46.66000588 97.03246163 -48.1875 98.6875 C-48.65704102 99.19249023 -49.12658203 99.69748047 -49.61035156 100.21777344 C-52.09405341 102.90097645 -52.09405341 102.90097645 -54 106 C-54.66 106 -55.32 106 -56 106 C-57.15713731 101.85026745 -57.16192788 97.82381343 -57.16796875 93.54296875 C-57.17129715 92.72178055 -57.17462555 91.90059235 -57.17805481 91.05451965 C-57.18311059 89.31882282 -57.18546355 87.5831163 -57.18530273 85.84741211 C-57.1874836 83.20735418 -57.20563796 80.56771813 -57.22460938 77.92773438 C-57.2275448 76.23698059 -57.2295286 74.54622483 -57.23046875 72.85546875 C-57.23765427 72.07294235 -57.24483978 71.29041595 -57.25224304 70.48417664 C-57.2277983 64.54626374 -56.78006244 59.15893811 -52.87109375 54.41796875 C-52.06800781 53.68191406 -51.26492188 52.94585937 -50.4375 52.1875 C-47.29427881 49.41203256 -47.29427881 49.41203256 -45 46 C-44.34 46 -43.68 46 -43 46 C-42.72921631 45.40703125 -42.45843262 44.8140625 -42.17944336 44.203125 C-41.01436908 42.02684052 -39.82477094 40.52983443 -38.12890625 38.75 C-37.27582886 37.84664917 -37.27582886 37.84664917 -36.40551758 36.92504883 C-35.79732178 36.28978271 -35.18912598 35.6545166 -34.5625 35 C-33.28600899 33.65016437 -32.0099724 32.29989888 -30.734375 30.94921875 C-30.10080078 30.28067871 -29.46722656 29.61213867 -28.81445312 28.92333984 C-26.28689052 26.24409627 -23.79572704 23.53278929 -21.3125 20.8125 C-20.44238281 19.86117187 -19.57226562 18.90984375 -18.67578125 17.9296875 C-17.79277344 16.96289062 -16.90976562 15.99609375 -16 15 C-14.00090599 12.81166977 -12.00070964 10.62435309 -10 8.4375 C-9.113125 7.46683594 -8.22625 6.49617188 -7.3125 5.49609375 C-6.549375 4.67238281 -5.78625 3.84867188 -5 3 C-4.443125 2.39285156 -3.88625 1.78570312 -3.3125 1.16015625 C-2 0 -2 0 0 0 Z " fill="#FC5906" transform="translate(693,59)"/>
<path d="M0 0 C6.13345503 -0.35004353 12.26093457 -0.60183894 18.40209961 -0.76904297 C20.48320891 -0.83881519 22.56364807 -0.93388639 24.64233398 -1.05615234 C43.74635077 -2.15043778 43.74635077 -2.15043778 51.7641449 4.89376831 C54.18219698 7.30120466 56.45135828 9.78962687 58.63796997 12.40844727 C60.30547938 14.35695728 62.14405834 16.00069846 64.125 17.625 C68.27158149 21.18960514 72.26312494 24.918465 76.25830078 28.65087891 C79.74444109 31.89342743 83.31789412 34.98133662 87 38 C86.51559353 42.46122729 85.13119802 44.29361811 81.875 47.3125 C75.76591069 53.15007423 70.37174619 59.4887925 65 66 C61.22100245 64.46739464 59.20621459 62.22309435 56.546875 59.171875 C51.30184933 53.28813667 45.78851046 47.7006588 40.203125 42.140625 C39.31951294 41.26031616 38.43590088 40.38000732 37.5255127 39.47302246 C34.76895451 36.73004885 32.00990749 33.98960339 29.25 31.25 C25.58558288 27.6123351 21.92460735 23.97125556 18.265625 20.328125 C17.43943665 19.51023499 16.61324829 18.69234497 15.76202393 17.84967041 C4.2720137 6.40802055 4.2720137 6.40802055 0 0 Z " fill="#FAFAF9" transform="translate(521,11)"/>
<path d="M0 0 C-0.66 1.32 -1.32 2.64 -2 4 C-2 3.34 -2 2.68 -2 2 C-7.48140602 2.0688791 -12.96204937 2.15684674 -18.44287109 2.26245117 C-20.30704282 2.29568784 -22.17131487 2.32372373 -24.03564453 2.34643555 C-26.71690591 2.38000488 -29.39724896 2.43232109 -32.078125 2.48828125 C-32.91055725 2.49467117 -33.7429895 2.5010611 -34.60064697 2.50764465 C-38.95705632 2.61812596 -41.77788106 2.72061591 -45 6 C-43.125 2.125 -43.125 2.125 -42 1 C-39.40582779 0.83971061 -36.83533651 0.74044357 -34.23828125 0.68359375 C-33.45486862 0.66281265 -32.67145599 0.64203156 -31.86430359 0.62062073 C-29.34712805 0.55504965 -26.8298419 0.49629958 -24.3125 0.4375 C-22.63345252 0.39430647 -20.95441582 0.35069191 -19.27539062 0.30664062 C-6.17207288 -0.02863364 -6.17207288 -0.02863364 0 0 Z " fill="#DAD8D5" transform="translate(233,10)"/>
<path d="" fill="#C8B6A4" transform="translate(0,0)"/>
<path d="" fill="#C8B6A4" transform="translate(0,0)"/>
<path d="" fill="#C8B6A4" transform="translate(0,0)"/>
<path d="" fill="#C8B6A4" transform="translate(0,0)"/>
<path d="" fill="#C8B6A4" transform="translate(0,0)"/>
<path d="" fill="#C8B6A4" transform="translate(0,0)"/>
</svg>
